<?xml version="1.0" encoding="UTF-8" standalone="no"?>
<svg
   width="24"
   height="24"
   viewBox="0 0 24 24"
   fill="none"
   stroke="currentColor"
   stroke-width="1"
   stroke-linecap="round"
   stroke-linejoin="round"
   class="icon icon-tabler icons-tabler-outline icon-tabler-device-watch"
   version="1.1"
   id="svg4"
   sodipodi:docname="logo.svg"
   xml:space="preserve"
   inkscape:version="1.4.3 (1:1.4.3+202512261035+0d15f75042)"
   xmlns:inkscape="http://www.inkscape.org/namespaces/inkscape"
   xmlns:sodipodi="http://sodipodi.sourceforge.net/DTD/sodipodi-0.dtd"
   xmlns="http://www.w3.org/2000/svg"
   xmlns:svg="http://www.w3.org/2000/svg"><defs
     id="defs4" /><sodipodi:namedview
     id="namedview4"
     pagecolor="#ffffff"
     bordercolor="#000000"
     borderopacity="0.25"
     inkscape:showpageshadow="2"
     inkscape:pageopacity="0.0"
     inkscape:pagecheckerboard="0"
     inkscape:deskcolor="#d1d1d1"
     inkscape:zoom="28.37266"
     inkscape:cx="16.794337"
     inkscape:cy="13.974721"
     inkscape:window-width="1920"
     inkscape:window-height="1172"
     inkscape:window-x="2560"
     inkscape:window-y="1080"
     inkscape:window-maximized="1"
     inkscape:current-layer="svg4" /><path
     d="M9 18v3h6v-3"
     id="path3"
     style="stroke:#9b3922;stroke-opacity:1;fill:#481e14;fill-opacity:0.93333334"
     inkscape:export-filename="millidays.png"
     inkscape:export-xdpi="323.12662"
     inkscape:export-ydpi="323.12662" /><path
     d="M9 6v-3h6v3"
     id="path4"
     style="stroke:#9b3922;stroke-opacity:1;fill:#481e14;fill-opacity:0.93333334" /><path
     stroke="none"
     d="M 2.4857829,2.4857829 H 21.5 V 21.5 H 2.4857829 Z"
     fill="none"
     id="path1"
     style="stroke-width:0.792259"
     inkscape:export-filename="favicon.png"
     inkscape:export-xdpi="323.12662"
     inkscape:export-ydpi="323.12662" /><path
     d="M 6,9 A 3,3 0 0 1 9,6 h 6 a 3,3 0 0 1 3,3 v 6 a 3,3 0 0 1 -3,3 H 9 A 3,3 0 0 1 6,15 V 9"
     id="path2"
     style="display:none;fill:#0c0c0c;fill-opacity:0.933333;stroke:#9b3922;stroke-opacity:1" /><g
     style="fill:none;stroke:currentColor;stroke-width:2.18182;stroke-linecap:round;stroke-linejoin:round;stroke-dasharray:none"
     id="g4"
     transform="matrix(0.67518907,0,0,0.67518907,3.908203,3.9049884)"><path
       d="m 8,12 a 4,4 0 1 0 8,0 4,4 0 1 0 -8,0"
       id="path2-6"
       style="stroke:#f2613f;stroke-width:2.18182;stroke-dasharray:none;stroke-opacity:1" /><path
       d="m 16,12 v 1.5 c 0,3.333332 5,3.333332 5,0 V 12 C 21.011463,3.0797219 9.4379417,-0.41821307 4.5041885,7.0093281 -0.42956469,14.436869 6.935235,24.166597 16.092969,20.28"
       id="path3-7"
       style="stroke:#f2613f;stroke-width:2.18182;stroke-dasharray:none;stroke-opacity:1"
       sodipodi:nodetypes="csscsc" /></g></svg>
